<svg xmlns="http://www.w3.org/2000/svg" xmlns:xlink="http://www.w3.org/1999/xlink" width="500" zoomAndPan="magnify" viewBox="0 0 375 374.999991" height="500" preserveAspectRatio="xMidYMid meet" version="1.0"><defs><clipPath id="id1"><path d="M 37.5 39.671875 L 335.25 39.671875 L 335.25 337.421875 L 37.5 337.421875 Z M 37.5 39.671875 " clip-rule="nonzero"/></clipPath></defs><g clip-path="url(#id1)"><path fill="rgb(0%, 0%, 0%)" d="M 186.375 39.671875 C 104.207031 39.671875 37.5 106.378906 37.5 188.546875 C 37.5 270.714844 104.207031 337.421875 186.375 337.421875 C 268.542969 337.421875 335.25 270.714844 335.25 188.546875 C 335.25 106.378906 268.542969 39.671875 186.375 39.671875 Z M 186.375 49.9375 C 262.875 49.9375 324.984375 112.046875 324.984375 188.546875 C 324.984375 265.046875 262.875 327.152344 186.375 327.152344 C 109.875 327.152344 47.765625 265.046875 47.765625 188.546875 C 47.765625 112.046875 109.875 49.9375 186.375 49.9375 Z M 186.375 49.9375 " fill-opacity="1" fill-rule="evenodd"/></g><path fill="rgb(0%, 0%, 0%)" d="M 186.375 165.003906 L 128.40625 222.984375 C 126.394531 224.984375 123.148438 224.984375 121.136719 222.984375 C 119.136719 220.96875 119.136719 217.726562 121.136719 215.714844 L 182.742188 154.109375 C 184.753906 152.109375 187.996094 152.109375 190.007812 154.109375 L 251.613281 215.714844 C 253.613281 217.726562 253.613281 220.96875 251.613281 222.984375 C 249.601562 224.984375 246.355469 224.984375 244.34375 222.984375 Z M 186.375 165.003906 " fill-opacity="1" fill-rule="evenodd"/></svg>